<?xml version="1.0" standalone="no"?>
<!DOCTYPE svg PUBLIC "-//W3C//DTD SVG 20010904//EN"
 "http://www.w3.org/TR/2001/REC-SVG-20010904/DTD/svg10.dtd">
<svg version="1.0" xmlns="http://www.w3.org/2000/svg"
 width="1700.000000pt" height="1700.000000pt" viewBox="0 0 1700.000000 1700.000000"
 preserveAspectRatio="xMidYMid meet">
<metadata>
Created by potrace 1.14, written by Peter Selinger 2001-2017
</metadata>
<g transform="translate(0.000000,1700.000000) scale(0.100000,-0.100000)"
fill="#000000" stroke="none">
<path d="M0 8500 l0 -8500 3220 0 3220 0 0 4263 c0 2344 3 4880 7 5635 l6
1372 2624 0 2623 0 0 -3255 0 -3255 -1725 0 -1725 0 0 -2380 0 -2380 4375 0
4375 0 0 8500 0 8500 -8500 0 -8500 0 0 -8500z"/>
<path d="M8030 9570 l0 -1070 470 0 470 0 0 1070 0 1070 -470 0 -470 0 0
-1070z"/>
<path d="M10040 9570 l0 -1070 470 0 470 0 0 1070 0 1070 -470 0 -470 0 0
-1070z"/>
<path d="M8270 6640 l0 -320 1340 0 1340 0 0 320 0 320 -1340 0 -1340 0 0
-320z"/>
</g>
</svg>
